# xmcd
#
# Track frame offsets:
#	150
#	13006
#	29153
#	44432
#	60124
#	75815
#	90672
#	104131
#	117909
#	131161
#	145386
#	161114
#	176590
#	193861
#	209118
#	225512
#	240297
#	256802
#	273517
#
# Disc length: 3880 seconds
#
# Revision: 0
# Processed by: cddbd v1.5.2PL0 Copyright (c) Steve Scherf et al.
# Submitted via: EasyCDDAExtractor 12.0.4.1
#
DISCID=0d0f2613
DTITLE=Various Artist - Nu Country Traxx Volume 133 US
DYEAR=2010
DGENRE=Country
TTITLE0=Alan Jackson - Hard Hat And A Hammer
TTITLE1=Dierks Bentley - Up On The Ridge
TTITLE2=Montgomery Gentry - While You're Still Young
TTITLE3=LoCash Cowboys - Here Comes Summer
TTITLE4=Blake Shelton - All About Tonight
TTITLE5=Fast Ryde - Top Down 
TTITLE6=Carrie Underwood - Undo It
TTITLE7=Thompson Square - Let's Fight
TTITLE8=Randy Houser - I'm All About It
TTITLE9=Frankie Ballard - Tell Me You Get Lonely
TTITLE10=Easton Corbin - Roll With It
TTITLE11=Ward Davis - Don't Open That Door
TTITLE12=Zac Brown Band - Free
TTITLE13=Tammy Cochran - He Really Thinks He's Got It
TTITLE14=Troy Olsen - Summer Thing
TTITLE15=Savanna Jack - I Know
TTITLE16=Joe Zelak Band - Who You Gonna Run To
TTITLE17=Blackberry Smoke - Good One Coming On
TTITLE18=Joel Warren - Leavin' Lubbock
EXTD=
EXTT0=
EXTT1=
EXTT2=
EXTT3=
EXTT4=
EXTT5=
EXTT6=
EXTT7=
EXTT8=
EXTT9=
EXTT10=
EXTT11=
EXTT12=
EXTT13=
EXTT14=
EXTT15=
EXTT16=
EXTT17=
EXTT18=
PLAYORDER=
